<svg width="62" height="69" fill="none" xmlns="http://www.w3.org/2000/svg"><g clip-path="url(#clip0)" fill="#9A1F1F"><path d="M42.502 0c.902.965 1.79 1.942 2.705 2.892 4.1 4.264 8.206 8.524 12.316 12.779.944.983 1.907 1.959 2.821 2.975.214.262.333.588.34.926.016 14.326.02 28.651.013 42.977v2.46h-49.97l-.122-.714C9.133 65.935 7.755 67.466 6.38 69h-.27a4713.76 4713.76 0 00-6.677-6.73A3.834 3.834 0 00-1 61.948l3.792-3.546c2.515-2.353 5.038-4.697 7.527-7.077.23-.217.338-.661.338-1 .016-16.484.021-32.968.015-49.45 0-.291.013-.584.02-.875h31.81zM41 20V2H13v46.5l14.778-13.48-3.58-3.465 9.838-9.821L46.32 34.02l-9.866 9.853-3.43-3.48c-.674.71-1.304 1.368-1.928 2.034-3.244 3.463-6.486 6.928-9.728 10.393-1.71 1.831-3.4 3.684-5.12 5.505-.447.472-3.899 4.168-3.748 4.675H59V20H41zm15.5-2L43 3.5V18h13.5z"/><path d="M51.08 36.117c-.36.577-.576 1.104-.943 1.483a1107.645 1107.645 0 01-8.947 8.968c-.49.487-1.001.944-1.81.744-1.067-.27-1.597-1.482-.899-2.335.735-.894 1.577-1.7 2.392-2.523 2.138-2.156 4.282-4.302 6.431-6.438.39-.398.807-.767 1.248-1.106.47-.352 1.056-.392 1.507-.049.39.3.644.78 1.022 1.256zm-27.837-4.963c-.492-.372-.99-.61-1.281-1.003-.34-.458-.33-1.052.017-1.562.17-.236.361-.456.573-.656 2.712-2.695 5.427-5.39 8.145-8.086.404-.404.797-.842 1.233-1.213.627-.539 1.442-.512 2.001.012.61.572.727 1.394.192 2.05-.507.621-1.101 1.17-1.669 1.737-2.56 2.573-5.12 5.15-7.715 7.7-.393.382-.92.634-1.496 1.02z"/></g><defs><clipPath id="clip0"><path fill="#fff" d="M0 0h61.693v69H0z"/></clipPath></defs></svg>