<svg width="59" height="69" fill="none" xmlns="http://www.w3.org/2000/svg"><g clip-path="url(#clip0)" fill="#9A1F1F"><path d="M48.1 44.6c1.966.25 3.754.852 5.348 1.938 3.425 2.334 5.324 5.581 5.48 9.73.163 4.335-1.574 7.83-5.057 10.414-2.419 1.795-5.176 2.533-8.153 2.263-3.907-.35-6.987-2.185-9.187-5.453-.147-.22-.288-.304-.556-.303-6.658.006-13.316.006-19.974 0H1.297c-.9 0-1.29-.377-1.29-1.274-.004-5.15-.004-10.299 0-15.448 0-5.073-.002-10.144-.005-15.215a8241.56 8241.56 0 01.004-15.215V6.362c0-.955.365-1.319 1.319-1.319h3.667c.009-.156.022-.294.022-.43V1.374c0-.99.377-1.368 1.37-1.368h29.138c1.404 0 2.809.02 4.213.014a1.333 1.333 0 01.978.39c2.08 1.981 4.16 3.96 6.242 5.937.131.125.262.252.401.368.528.442.756.968.756 1.692a12443.1 12443.1 0 00-.016 35.626l.003.567zM45.941 8.623h-5.925c-.852 0-1.242-.39-1.242-1.24V2.195H7.21v53.8h27.23c.984-6.71 4.805-10.533 11.5-11.519l.002-35.852zM34.518 58.184H6.49c-1.108 0-1.476-.365-1.476-1.466V7.212H2.192v53.799h33.004c-.223-.937-.444-1.852-.678-2.827zm11.446-2.168h-.759c-2.172 0-4.344-.002-6.515-.005-.397 0-.753.088-1.004.414-.251.325-.322.707-.141 1.097.2.431.546.645 1.024.645h7.393v7.195c0 .557.277.96.751 1.099.736.214 1.381-.306 1.383-1.13.005-2.237.005-4.473 0-6.71v-.453h3.199c1.297 0 2.593.008 3.889-.006.714-.007 1.17-.532 1.092-1.218-.066-.587-.5-.93-1.188-.931h-6.99v-6.997a2.08 2.08 0 00-.087-.686 1.032 1.032 0 00-1.159-.652c-.528.096-.882.513-.884 1.077-.004 2.25-.004 4.5 0 6.75l-.004.51z"/><path d="M26.535 33.763h-12.64a2.04 2.04 0 01-.39-.02.725.725 0 01.01-1.42 1.8 1.8 0 01.349-.02h25.584c.457.032.75.321.747.735-.002.413-.298.714-.756.721-.82.014-1.639.005-2.457.005l-10.447-.002zm.037-20.125h12.677c.193-.006.384.028.564.098.289.128.414.384.384.702a.64.64 0 01-.52.604 1.793 1.793 0 01-.424.048H13.832c-.585 0-.905-.267-.894-.738.01-.47.323-.716.917-.716l12.717.002zm.001 29.447H13.818c-.561 0-.879-.256-.883-.702-.005-.447.29-.733.775-.734h25.661c.518 0 .824.279.825.727 0 .448-.302.711-.832.711-4.264 0-8.527 0-12.79-.002zm-.043-19.384h12.634c.143-.005.286 0 .428.015a.668.668 0 01.606.692.696.696 0 01-.591.713 2.092 2.092 0 01-.35.013H13.674c-.437-.02-.736-.297-.744-.689-.01-.418.285-.734.732-.74.936-.014 1.872-.01 2.809-.01h10.058v.006z"/></g><defs><clipPath id="clip0"><path fill="#fff" d="M0 0h58.939v69H0z"/></clipPath></defs></svg>