<svg width="25" height="24" fill="none" xmlns="http://www.w3.org/2000/svg"><path d="M7.73 0C3.893 0 .763 3.13.763 6.966v10.068C.763 20.87 3.893 24 7.73 24h10.067c3.836 0 6.966-3.13 6.966-6.966V6.966C24.763 3.13 21.633 0 17.797 0H7.73zm0 1.846h10.067a5.105 5.105 0 015.12 5.12v10.068a5.105 5.105 0 01-5.12 5.12H7.73a5.105 5.105 0 01-5.12-5.12V6.966a5.105 5.105 0 015.12-5.12zm11.956 1.846a1.385 1.385 0 100 2.77 1.385 1.385 0 000-2.77zm-6.923 1.846c-3.559 0-6.461 2.903-6.461 6.462 0 3.559 2.902 6.462 6.461 6.462 3.56 0 6.462-2.903 6.462-6.462 0-3.559-2.903-6.462-6.462-6.462zm0 1.847A4.601 4.601 0 0117.38 12a4.601 4.601 0 01-4.616 4.615A4.601 4.601 0 018.148 12a4.601 4.601 0 014.615-4.615z" fill="#9A1F1F"/></svg>