<svg width="24" height="25" fill="none" xmlns="http://www.w3.org/2000/svg"><g clip-path="url(#clip0)"><path class="stroke" d="M17.571.767H6.43C3.292.767.75 3.366.75 6.572v11.39c0 3.207 2.542 5.805 5.679 5.805H17.57c3.137 0 5.679-2.598 5.679-5.804V6.572c0-3.206-2.542-5.805-5.679-5.805z" stroke="#9A1F1F" stroke-width="1.5" stroke-miterlimit="10"/><path class="stroke" d="M18.236 7.44H5.766c-.82 0-1.486.68-1.486 1.518v6.813c0 .838.665 1.518 1.485 1.518h12.47c.82 0 1.486-.68 1.486-1.518V8.958c0-.838-.665-1.518-1.485-1.518z" stroke="#9A1F1F" stroke-width="1.394" stroke-miterlimit="10"/><path class="stroke" d="M6.48 7.759a.534.534 0 00-.298.092.566.566 0 00-.094.845l4.225 4.525c.953 1.02 2.424 1.05 3.408.067l4.578-4.578a.557.557 0 00.123-.606.552.552 0 00-.2-.251.534.534 0 00-.302-.094H6.48zm2.551 4.605l-4.135 4.228m10.056-4.109l4.134 4.226" stroke="#9A1F1F" stroke-width="1.065" stroke-miterlimit="10"/></g><defs><clipPath id="clip0"><path fill="#fff" d="M0 0h24v24.534H0z"/></clipPath></defs></svg>