<svg width="63" height="81" fill="none" xmlns="http://www.w3.org/2000/svg"><g clip-path="url(#clip0)" fill="#9A1F1F"><path d="M.007 40.245V3.826c0-2.17 1.73-3.84 3.905-3.83 5.391.013 10.782 0 16.177 0 6.4 0 12.8.004 19.202.012 2.328 0 4.656.02 6.983-.012.644-.01 1.113.226 1.54.657 1.87 1.884 3.744 3.765 5.62 5.644 2.972 2.975 5.947 5.947 8.928 8.915a2.055 2.055 0 01.644 1.555c-.01 6.362-.015 12.724-.015 19.086 0 6.4.003 12.8.009 19.203.006 6.401.003 12.802-.01 19.202 0 .834.018 1.668.01 2.502-.02 2.15-1.687 3.84-3.84 3.854-2.733.014-5.47-.023-8.198-.022-2.91 0-5.82.026-8.722.026-2.888 0-5.776-.026-8.664-.026-2.91 0-5.819.025-8.721.025-2.888 0-5.776-.022-8.663-.023-1.842 0-3.684.025-5.525.025-2.074 0-4.148-.04-6.222-.02-.825.008-1.62-.008-2.368-.418C.774 79.47.047 78.37.025 76.903c-.041-2.714 0-5.43 0-8.147v-28.51H.007zM45.324 2.57H34.801c-4.378 0-8.758-.005-13.137-.014H9.284c-1.803 0-3.608 0-5.408.023-.805.012-1.241.466-1.302 1.264-.022.29-.011.582-.011.873l.02 22.722c0 8.928-.007 17.857-.02 26.786v22.314c0 1.012.465 1.536 1.402 1.537 3.587 0 7.173-.01 10.76-.01 4.052 0 8.103.011 12.156.011 4.072 0 8.145-.003 12.22-.01 4.074-.005 8.147-.002 12.22.01 2.56 0 5.12.01 7.68 0 .96 0 1.451-.496 1.455-1.428.007-2.579 0-5.158 0-7.737 0-4.07-.004-8.144-.01-12.22-.008-4.075-.005-8.148.009-12.22 0-4.072-.003-8.145-.01-12.219-.006-4.074-.002-8.147.01-12.22V17.64H46.87c-1.118 0-1.536-.43-1.535-1.557V2.569h-.01zm2.59 2.012V15.1h10.523L47.914 4.58z"/><path d="M39.022 70.528c.86-3.424 1.666-6.71 2.525-9.983.171-.651.087-.991-.51-1.396-3.273-2.23-4.272-6.677-2.223-10.05 1.499-2.47 3.77-3.77 6.679-3.708 2.855.06 5.057 1.39 6.465 3.875 1.972 3.482.86 7.74-2.56 10.076-.142.097-.287.189-.465.309l2.726 10.875c-.427-.245-.749-.424-1.066-.613-1.578-.946-3.16-1.884-4.725-2.85-.377-.232-.669-.232-1.047 0-1.699 1.048-3.416 2.062-5.12 3.087-.188.104-.373.204-.679.378zm-7.493-47.804h16.794c1.066 0 2.131-.012 3.197 0 .836.012 1.384.517 1.397 1.242.01.777-.504 1.28-1.397 1.289-2.985.017-5.97.015-8.96.015-4.072 0-8.142-.002-12.212-.006H18.02c-2.132 0-4.265.033-6.4-.01a2.192 2.192 0 01-1.246-.465c-.371-.301-.438-.814-.21-1.28a1.321 1.321 0 011.256-.805 807.35 807.35 0 014.772 0c2.905.004 5.811.01 8.717.017 2.205.005 4.41.006 6.619.003zm-.063 15.107H50.54c.35 0 .699-.02 1.048-.016.75.008 1.302.508 1.323 1.187.023.755-.502 1.35-1.28 1.363-1.687.028-3.375.023-5.06.024H11.676a2.361 2.361 0 01-.684-.09c-.593-.187-.993-.825-.904-1.396a1.242 1.242 0 011.254-1.072c2.267-.01 4.538-.007 6.803-.008h13.322v.008zm.051-7.555H51.52c.596 0 1.061.223 1.3.79.21.495.132.997-.272 1.328a1.81 1.81 0 01-1.04.404c-3.001.032-6.004.02-9.005.023-2.923 0-5.847.003-8.771.01-3.08 0-6.159-.016-9.238-.015-4.3 0-8.598.007-12.897.021-.582 0-1.065-.178-1.368-.706a1.164 1.164 0 01.04-1.267c.3-.484.775-.601 1.303-.601h19.945v.013zm-7.651-12.577H11.718c-.29.013-.579-.02-.858-.096a1.187 1.187 0 01-.773-1.289c.117-.705.625-1.164 1.374-1.164 1.59-.011 3.179 0 4.771 0h15.933c1.397 0 2.793-.008 4.19 0 .864 0 1.44.559 1.43 1.342-.011.726-.557 1.21-1.416 1.21-4.168.006-8.335.005-12.503-.003zm-2.484 35.223c3.293 0 6.586-.016 9.878.02.432.023.846.182 1.183.454.382.312.416.829.2 1.29a1.28 1.28 0 01-1.241.79c-2.114-.006-4.227 0-6.34 0H11.627c-.9 0-1.342-.294-1.5-.974a1.24 1.24 0 011.2-1.548c3.353-.008 6.704 0 10.055 0v-.032zm.026-7.554h9.932c1.127 0 1.763 1.037 1.214 1.95-.306.51-.807.623-1.352.623-1.818 0-3.635-.01-5.452-.011H11.829a4.812 4.812 0 01-.582-.022 1.28 1.28 0 01-1.164-1.294c.023-.72.53-1.224 1.28-1.226 2.285-.008 4.57 0 6.854 0h3.194l-.003-.02zm-.028 17.651h-9.855c-.88 0-1.455-.504-1.45-1.231 0-.782.583-1.298 1.467-1.297 5.19 0 10.381.005 15.573.014h4.243c.854 0 1.396.485 1.396 1.218-.007.755-.582 1.313-1.396 1.315-3.324.006-6.647.006-9.97 0l-.009-.019zm.03 7.571h-9.86c-.8 0-1.28-.332-1.44-.996a1.21 1.21 0 01.67-1.397 1.89 1.89 0 01.78-.166c2.846 0 5.693.02 8.538.02 2.91 0 5.809-.02 8.713-.025.89 0 1.782.008 2.677.033.76.02 1.249.521 1.249 1.24a1.221 1.221 0 01-1.237 1.265c-2.106.026-4.212.02-6.318.024h-3.769l-.004.002z"/></g><defs><clipPath id="clip0"><path fill="#fff" d="M0 0h63v80.612H0z"/></clipPath></defs></svg>