<svg width="64" height="71" fill="none" xmlns="http://www.w3.org/2000/svg"><g clip-path="url(#clip0)"><path class="stroke" d="M42.01 32.968c.453 0 .905.028 1.354.083a12.69 12.69 0 00.738-4.266H30.36V15.092c-.394-.03-.792-.048-1.195-.048-8.248 0-14.936 6.15-14.936 13.741 0 7.591 6.688 13.742 14.936 13.742.552 0 1.103-.029 1.652-.087a11.351 11.351 0 0111.193-9.472v0z" stroke="#9A1F1F" stroke-width="2.295" stroke-miterlimit="10"/><path class="stroke" d="M42.01 55.672c6.27 0 11.352-5.083 11.352-11.352 0-6.27-5.082-11.352-11.352-11.352-6.269 0-11.351 5.083-11.351 11.352 0 6.27 5.082 11.352 11.351 11.352zm-19.118-.598a6.273 6.273 0 100-12.546 6.273 6.273 0 000 12.546z" stroke="#9A1F1F" stroke-width="2.295" stroke-miterlimit="10"/><path d="M43.988 29.2c1.494-1.224 3.071-2.553 4.986-2.986.708-.165 1.843-.3 2.429.271 1.242 1.22-.493 3.884-1.65 1.954-.69-1.153-2.5-.101-1.792 1.055.99 1.652 3.041 2.288 4.667 1.114 1.541-1.117 1.693-3.585.675-5.111-1.055-1.578-3.194-1.694-4.873-1.3-2.273.529-4.152 2.091-5.908 3.534-1.04.857.448 2.33 1.478 1.479l-.012-.01zm-4.63 9.262v11.17c0 1.347 2.091 1.35 2.091 0v-11.17c0-1.344-2.091-1.347-2.091 0z" fill="#9A1F1F"/><path d="M40.323 39.406c1.894-.045 4.998-.69 5.23 1.939a4.001 4.001 0 01-.211 1.708c-.215.598-.3.598-.92.67a21.66 21.66 0 01-3.266.023c-1.344-.038-1.344 2.053 0 2.092 1.013.03 2.023.03 3.032 0 .679-.03 1.452 0 2.04-.407 1.157-.78 1.494-2.721 1.426-3.997-.069-1.493-.648-2.873-2.026-3.605-1.577-.837-3.584-.541-5.305-.5-1.344.03-1.35 2.122 0 2.092v-.015zm-2.345 9.613h4.982c1.345 0 1.348-2.091 0-2.091h-4.982c-1.345 0-1.348 2.09 0 2.09zm-13.718.46l5.753-5.515c1.147-1.099-.597-2.84-1.744-1.741l-5.75 5.514c-1.148 1.1.597 2.841 1.74 1.742z" fill="#9A1F1F"/><path class="stroke" d="M60.302 17.449L35.755 2.142a5.26 5.26 0 00-5.255-.18L5.117 15.493a5.263 5.263 0 00-2.796 4.481l-.974 28.762a5.257 5.257 0 002.47 4.64L28.236 68.61a5.266 5.266 0 005.258.177l25.392-13.533a5.263 5.263 0 002.784-4.463l.98-28.911a4.986 4.986 0 00-2.348-4.43v0z" stroke="#9A1F1F" stroke-width="2.951" stroke-miterlimit="10"/></g><defs><clipPath id="clip0"><path fill="#fff" d="M0 0h64v70.724H0z"/></clipPath></defs></svg>