<svg width="73" height="66" fill="none" xmlns="http://www.w3.org/2000/svg"><g clip-path="url(#clip0)" fill="#9A1F1F"><path d="M37.98 56.477h-3.104V15.819c0-1.754-1.047-2.453-2.713-1.82l-18.134 6.994c-.351.135-.708.253-1.161.417-.364-.95-.713-1.85-1.09-2.838l10.351-3.977c3.112-1.202 6.217-2.417 9.333-3.596.555-.21.726-.542.944-1.082.371-.91.897-1.866 1.626-2.492.626-.54.91-.99.853-1.775-.054-.75-.014-1.505-.014-2.343h3.105v2.167c0 1.935.983 2.62 2.782 1.928L58.9.422l1.08-.414c.362.938.708 1.821 1.102 2.848l-7.455 2.886c-4.029 1.552-8.055 3.114-12.093 4.646-.615.227-.874.564-1.113 1.22a6.039 6.039 0 01-1.666 2.463 1.924 1.924 0 00-.79 1.69c.016 13.05.02 26.1.011 39.15l.005 1.565zM51.683 29.75h21.169c.157 3.899-1.152 7.106-4.28 9.384-3.641 2.657-7.609 2.907-11.528.683-3.813-2.144-5.47-5.59-5.36-10.067zM21.17 45.125c.128 4.266-1.458 7.589-4.99 9.788-3.675 2.292-7.524 2.276-11.188 0C1.454 52.718-.13 49.383 0 45.125h21.17zm-6.345 20.877v-2.877h43.179v2.877h-43.18zm7.638-7.272h27.913v2.925H22.463V58.73zM10.575 28.325c-1.268 2.765-2.436 5.31-3.599 7.857-.806 1.757-1.593 3.519-2.406 5.276-.714 1.56-.717 1.56-2.731 1.343 2.904-6.373 5.786-12.688 8.76-19.216l8.705 19.075c-1.616.544-1.944.41-2.581-.988-1.84-4.036-3.68-8.071-5.524-12.105-.164-.341-.34-.671-.624-1.242zM62.263 8.274l8.752 19.197c-1.999.31-1.994.305-2.732-1.315-1.87-4.098-3.74-8.195-5.613-12.292-.107-.227-.243-.455-.434-.81a7674.692 7674.692 0 00-3.831 8.358c-.71 1.55-1.418 3.102-2.124 4.652-.737 1.626-.735 1.626-2.788 1.466 2.9-6.378 5.774-12.685 8.77-19.256z"/></g><defs><clipPath id="clip0"><path fill="#fff" d="M0 0h72.854v66H0z"/></clipPath></defs></svg>