<svg width="64" height="68" fill="none" xmlns="http://www.w3.org/2000/svg"><g clip-path="url(#clip0)" fill="#9A1F1F"><path d="M1.226 67.55C.342 67.216-.003 66.557 0 65.61V1.95C0 .543.551-.003 1.942-.003h29.606c1.417 0 1.977.56 1.983 1.991v5.278c.009.255-.074.504-.233.7-.97.891-1.974 1.722-2.8 2.432v-7.29H3.1v61.348h27.359V30.218l.147-.074c.192.243.365.505.59.727.618.647 1.23 1.303 1.894 1.906a1.298 1.298 0 01.465 1.08c-.012 9.895-.012 19.79 0 29.685v.89h27.4v-21.59l3.028-1.139c.022.138.035.276.039.416v23.486c0 .947-.33 1.606-1.229 1.938l-61.566.006z"/><path d="M52.757 31.899a14.51 14.51 0 01-10.292 3.258 14.542 14.542 0 01-9.698-4.76 14.758 14.758 0 01-3.798-10.175 14.75 14.75 0 014.181-10.02c5.133-5.343 13.453-5.86 19.324-1.318 5.872 4.542 7.896 13.904 2.357 20.955.316.276.63.593.978.84.15.112.336.167.522.154a2.98 2.98 0 012.675.926c1.352 1.339 2.705 2.672 4.025 4.058 1.243 1.291 1.252 3.182.067 4.381-1.184 1.2-3.052 1.218-4.348-.032-1.37-1.324-2.699-2.69-4.028-4.058a3.107 3.107 0 01-.934-2.758.76.76 0 00-.18-.513c-.247-.315-.547-.612-.85-.938zm-9.254.198a11.469 11.469 0 006.416-1.936 11.6 11.6 0 004.266-5.203 11.7 11.7 0 00.676-6.713 11.647 11.647 0 00-3.142-5.96 11.506 11.506 0 00-5.899-3.196 11.45 11.45 0 00-6.666.647 11.55 11.55 0 00-5.186 4.271 11.68 11.68 0 00-1.955 6.454 11.653 11.653 0 00.858 4.449 11.583 11.583 0 002.487 3.776 11.485 11.485 0 003.735 2.525c1.397.585 2.896.887 4.41.886zm-21.065 17.41H20.02c-1.09-.017-1.703-.552-1.73-1.626-.043-1.71-.04-3.426 0-5.139.024-1.068.628-1.65 1.704-1.67 1.655-.03 3.312-.03 4.97 0 1.108.02 1.68.622 1.691 1.736 0 1.67.018 3.34 0 5.007 0 1.09-.59 1.65-1.662 1.692h-2.555zm-11.39-11.505H8.627c-1.143 0-1.768-.594-1.768-1.734a236.414 236.414 0 010-5.007c0-1.063.619-1.683 1.667-1.698a192.14 192.14 0 015.036 0c1.048 0 1.655.632 1.667 1.698.018 1.668.018 3.337 0 5.007 0 1.131-.622 1.72-1.768 1.734-.801.009-1.608 0-2.413 0zm11.455-19.957c.828 0 1.656-.018 2.484 0 1.075.03 1.647.594 1.659 1.692.02 1.669.017 3.34 0 5.008 0 1.09-.557 1.707-1.627 1.734-1.7.041-3.403.041-5.1 0-1.037-.027-1.614-.618-1.638-1.666a110.72 110.72 0 010-5.138c.027-1.072.64-1.609 1.73-1.633.836-.012 1.664 0 2.492.003zm18.979 31.462h-2.419c-1.125-.02-1.703-.593-1.714-1.7a236.147 236.147 0 010-5.008c0-1.084.565-1.698 1.638-1.722 1.697-.039 3.4-.042 5.1 0 1.028.024 1.602.626 1.626 1.674.035 1.692.035 3.383 0 5.073-.024 1.113-.625 1.663-1.747 1.68-.84.015-1.656.003-2.484.003zM11.028 14.955H8.606c-1.158-.024-1.735-.594-1.747-1.745a345.32 345.32 0 010-4.943c0-1.107.59-1.724 1.688-1.748 1.656-.036 3.315-.033 4.97 0 1.14.02 1.706.635 1.715 1.78.012 1.626.012 3.25 0 4.875 0 1.16-.59 1.742-1.723 1.781-.825.015-1.653 0-2.481 0zm15.626 18.891c0 .834.018 1.668 0 2.502-.026 1.036-.607 1.633-1.64 1.648-1.677.023-3.356.02-5.036 0-1.03 0-1.652-.576-1.682-1.615a99.864 99.864 0 010-5.204c.03-1.042.651-1.606 1.682-1.618 1.68-.017 3.359-.02 5.035 0 1.034 0 1.615.594 1.641 1.648.018.882 0 1.76 0 2.639zM11.063 52.6c.828 0 1.656-.017 2.484 0 1.107.033 1.676.618 1.685 1.74.014 1.647.014 3.294 0 4.943 0 1.089-.55 1.715-1.617 1.745-1.7.047-3.403.045-5.103 0-1.1-.027-1.644-.65-1.653-1.781a336.265 336.265 0 010-4.877c0-1.164.571-1.746 1.718-1.781.827-.003 1.658.012 2.486.012zm46.078 4.302v2.375c0 1.098-.542 1.727-1.606 1.757-1.72.05-3.447.05-5.167 0-1.037-.03-1.588-.65-1.6-1.695a258.8 258.8 0 010-5.008c0-1.092.572-1.698 1.638-1.716 1.7-.03 3.399-.03 5.1 0 1.066.018 1.617.627 1.635 1.72.012.854 0 1.712 0 2.567zM26.654 10.82v2.44c-.023 1.086-.59 1.671-1.662 1.686a150.91 150.91 0 01-5.035 0c-1.046 0-1.638-.57-1.664-1.62a103.07 103.07 0 010-5.142c.02-1.048.589-1.636 1.635-1.663a95.267 95.267 0 015.1 0c1.075.027 1.608.636 1.629 1.731.009.855-.003 1.71-.003 2.568zM22.503 52.6h2.422c1.178.027 1.73.594 1.738 1.749a290.76 290.76 0 010 4.942c0 1.12-.566 1.722-1.68 1.746-1.658.035-3.314.032-4.97 0-1.134-.021-1.705-.63-1.72-1.781-.02-1.624-.024-3.266 0-4.877.015-1.188.59-1.752 1.791-1.782.796-.008 1.603.003 2.419.003zm14.84 4.168v-2.502c.026-1.05.589-1.639 1.626-1.653 1.699-.03 3.399-.03 5.1 0 1.031 0 1.614.593 1.638 1.653.035 1.689.032 3.381 0 5.073-.02 1.08-.59 1.674-1.67 1.698-1.678.04-3.356.04-5.036 0-1.107-.024-1.644-.632-1.661-1.763-.01-.834.003-1.672.003-2.506zM15.238 22.275v2.44c-.018 1.12-.572 1.746-1.67 1.781a113.9 113.9 0 01-5.036 0c-1.099-.023-1.661-.65-1.67-1.78v-4.943c0-1.113.59-1.71 1.7-1.725 1.655-.02 3.311-.018 4.97 0 1.108 0 1.682.594 1.703 1.725.015.834.003 1.668.003 2.502zm-4.225 27.232H8.594c-1.149-.02-1.732-.593-1.744-1.748a345.316 345.316 0 010-4.943c0-1.08.566-1.712 1.626-1.742 1.7-.041 3.4-.039 5.1 0 1.064.024 1.635.65 1.644 1.725.018 1.668.018 3.337 0 5.007 0 1.084-.589 1.672-1.658 1.698-.837.021-1.689.003-2.549.003zm41.903 0c-.828 0-1.655.018-2.483 0-1.07-.026-1.656-.611-1.668-1.689a258 258 0 010-5.007c0-1.078.575-1.707 1.638-1.734 1.697-.041 3.4-.041 5.1 0 1.06.027 1.623.66 1.635 1.734 0 1.67.018 3.34 0 5.007 0 1.078-.59 1.65-1.667 1.692h-2.552l-.003-.003z"/><path d="M30.97 26.101c.035.337.048.675.038 1.013h.216a2.314 2.314 0 010-.867c.023-.119-.139-.202-.204-.086a.547.547 0 00-.035.258v.721a.304.304 0 000 .072c0 .02 0 0 0 0l.047-.03.106.083a1.56 1.56 0 01-.05-.368.8.8 0 01.018-.166c0-.033.023-.125.053-.14l-.053.018-.048-.03c0-.018 0-.018 0 0v.081l.03.128.056.24a.113.113 0 00.108.082.111.111 0 00.107-.082c.028-.15.022-.304-.018-.45a.112.112 0 00-.12-.077.111.111 0 00-.098.106c0 .12.015.24.041.356a.112.112 0 00.135.07.114.114 0 00.08-.129 1.257 1.257 0 01-.035-.297l-.218.03a.707.707 0 01.018.332h.215c-.038-.151-.065-.297-.109-.46a.149.149 0 00-.15-.119.2.2 0 00-.16.13 1.223 1.223 0 00-.02.808.113.113 0 00.106.08c.103 0 .153-.091.16-.18.005-.09 0-.223 0-.333v-.496a.28.28 0 010-.122l-.201-.086a2.64 2.64 0 00-.018.986c.018.104.2.11.215 0a8.72 8.72 0 00-.032-1.072.113.113 0 00-.11-.094.111.111 0 00-.111.094l.041-.003z"/><path d="M31.003 26.244a.43.43 0 00-.098.19.448.448 0 000 .216.115.115 0 00.053.066.108.108 0 00.086 0 .114.114 0 00.077-.136.303.303 0 010-.051v.03a.263.263 0 010-.084v.03a.3.3 0 01.023-.083v.026a.299.299 0 01.041-.07l-.017.023a.128.128 0 00.032-.077.111.111 0 00-.032-.08.114.114 0 00-.122-.025.097.097 0 00-.035.025h-.008z"/></g><defs><clipPath id="clip0"><path fill="#fff" d="M0 0h64v67.556H0z"/></clipPath></defs></svg>