<svg width="64" height="64" fill="none" xmlns="http://www.w3.org/2000/svg"><path d="M2.746 63.994c-.842-.314-1.17-.937-1.168-1.833V1.967c0-1.33.525-1.846 1.85-1.846h28.205c1.35 0 1.883.53 1.889 1.883v4.99a.99.99 0 01-.222.663c-.923.842-1.88 1.628-2.666 2.299V3.062H4.53V61.07h26.064V28.696l.14-.07c.182.23.348.477.561.688.59.612 1.173 1.232 1.805 1.802a1.23 1.23 0 01.444 1.021c-.012 9.356-.012 18.712 0 28.068v.842h26.102V40.634l2.886-1.078c.02.13.032.261.036.393v22.207c0 .895-.314 1.518-1.17 1.833l-58.653.005z" fill="#9A1F1F"/><path d="M22.954 46.935h-2.305c-1.038-.017-1.622-.522-1.647-1.538a96.678 96.678 0 010-4.859c.022-1.01.598-1.56 1.622-1.58 1.577-.028 3.156-.028 4.735 0 1.055.02 1.6.59 1.611 1.642 0 1.58.017 3.158 0 4.735 0 1.03-.561 1.56-1.583 1.6h-2.433zM12.103 36.056H9.796c-1.09 0-1.684-.562-1.684-1.64a221.91 221.91 0 010-4.735c0-1.004.59-1.591 1.588-1.605 1.597-.02 3.195-.02 4.797 0 1 0 1.578.598 1.589 1.605.017 1.578.017 3.156 0 4.735 0 1.07-.592 1.626-1.684 1.64-.764.008-1.533 0-2.299 0zm10.912-18.87c.79 0 1.578-.017 2.366 0 1.025.028 1.57.561 1.58 1.6.02 1.577.018 3.157 0 4.735 0 1.03-.53 1.614-1.549 1.639-1.62.04-3.241.04-4.858 0-.988-.025-1.538-.584-1.56-1.575a102.18 102.18 0 010-4.858c.024-1.013.608-1.521 1.647-1.544.797-.011 1.586 0 2.374.003zm18.082 29.749h-2.304c-1.072-.02-1.623-.562-1.634-1.609a222.43 222.43 0 010-4.735c0-1.024.539-1.605 1.56-1.627 1.617-.037 3.24-.04 4.86 0 .979.022 1.526.592 1.548 1.583.034 1.6.034 3.198 0 4.796-.022 1.053-.595 1.572-1.664 1.589-.8.014-1.577.003-2.366.003zM12.083 14.264H9.776c-1.103-.023-1.653-.562-1.665-1.65a324.133 324.133 0 010-4.674c0-1.047.562-1.63 1.609-1.653 1.577-.034 3.157-.031 4.735 0 1.086.02 1.625.6 1.633 1.684a316.08 316.08 0 010 4.609c0 1.097-.561 1.647-1.642 1.684-.786.014-1.574 0-2.363 0zM26.97 32.126c0 .789.017 1.578 0 2.366-.025.98-.578 1.544-1.563 1.558-1.597.023-3.197.02-4.797 0-.982 0-1.575-.544-1.603-1.527a93.63 93.63 0 010-4.92c.028-.985.62-1.519 1.603-1.53 1.6-.017 3.2-.02 4.797 0 .985 0 1.538.562 1.563 1.558.017.834 0 1.664 0 2.495zM12.117 49.86c.788 0 1.577-.018 2.366 0 1.055.03 1.597.583 1.605 1.644.013 1.557.013 3.115 0 4.673 0 1.03-.525 1.623-1.54 1.65-1.62.046-3.242.043-4.862 0-1.047-.025-1.566-.614-1.575-1.683a315.616 315.616 0 010-4.612c0-1.1.545-1.65 1.637-1.684.789-.003 1.58.011 2.369.011zm43.898 4.067v2.245c0 1.039-.517 1.634-1.53 1.662a85.96 85.96 0 01-4.923 0c-.988-.028-1.513-.615-1.524-1.603-.017-1.58-.014-3.158 0-4.735 0-1.033.545-1.606 1.56-1.622 1.62-.029 3.239-.029 4.86 0 1.015.016 1.54.592 1.557 1.625.011.808 0 1.62 0 2.428zM26.97 10.354v2.308c-.022 1.027-.561 1.58-1.583 1.594-1.598.026-3.197.026-4.797 0-.996 0-1.56-.54-1.585-1.533a96.79 96.79 0 010-4.861c.02-.99.561-1.547 1.557-1.572a91.423 91.423 0 014.859 0c1.024.025 1.532.6 1.552 1.636.009.809-.003 1.617-.003 2.428zM23.015 49.86h2.308c1.122.025 1.647.56 1.656 1.653.013 1.556.013 3.114 0 4.673 0 1.058-.54 1.628-1.6 1.65a115.7 115.7 0 01-4.735 0c-1.08-.02-1.625-.595-1.64-1.684-.02-1.535-.022-3.087 0-4.611.015-1.123.562-1.656 1.707-1.684.758-.009 1.527.002 2.304.002zm14.138 3.94v-2.366c.026-.994.562-1.55 1.55-1.563 1.618-.028 3.238-.028 4.858 0 .983 0 1.538.561 1.56 1.563.035 1.597.032 3.197 0 4.797-.019 1.021-.56 1.583-1.59 1.605a100.94 100.94 0 01-4.797 0c-1.056-.022-1.567-.598-1.583-1.667-.009-.789.002-1.58.002-2.369zM16.094 21.185v2.308c-.017 1.058-.545 1.65-1.592 1.684-1.597.036-3.196.033-4.796 0-1.047-.023-1.583-.615-1.592-1.684v-4.674c0-1.052.562-1.616 1.62-1.63a201.99 201.99 0 014.735 0c1.055 0 1.603.56 1.622 1.63.014.789.003 1.578.003 2.366zm-4.024 25.75H9.764c-1.095-.02-1.65-.561-1.662-1.653a324.132 324.132 0 010-4.673c0-1.022.539-1.62 1.55-1.648 1.619-.04 3.239-.036 4.858 0 1.013.023 1.558.615 1.566 1.63a222.43 222.43 0 010 4.736c0 1.024-.561 1.58-1.58 1.605-.797.02-1.608.003-2.428.003zm39.92 0c-.789 0-1.578.017-2.366 0-1.02-.026-1.578-.578-1.589-1.597a242.66 242.66 0 010-4.735c0-1.02.547-1.614 1.56-1.64 1.617-.039 3.24-.039 4.86 0 1.01.026 1.546.624 1.557 1.64 0 1.58.017 3.157 0 4.735 0 1.019-.562 1.56-1.589 1.6h-2.43l-.003-.003zM31.113 24.938a.407.407 0 00-.093.18.42.42 0 000 .205.11.11 0 00.051.062.104.104 0 00.081 0 .107.107 0 00.073-.13.293.293 0 010-.047v.028a.247.247 0 010-.079v.028a.28.28 0 01.023-.078v.025a.28.28 0 01.04-.067l-.018.022a.12.12 0 00.031-.073.103.103 0 00-.03-.076.11.11 0 00-.116-.023.094.094 0 00-.034.023h-.008z" fill="#9A1F1F"/><path class="stroke" d="M42.944 31.436c6.665 0 12.069-5.404 12.069-12.07 0-6.665-5.404-12.069-12.07-12.069-6.665 0-12.068 5.404-12.068 12.07 0 6.665 5.403 12.069 12.069 12.069z" stroke="#9A1F1F" stroke-width="2.527" stroke-miterlimit="10"/><path d="M37.847 18.774h6.419v1.859h-6.42v-1.858zm0 3.307h6.419v1.858h-6.42v-1.858zm1.658-9.973h1.965v13.928h-1.965V12.108zm1.005 6.666h4.455c.395.011.784-.092 1.122-.297.325-.202.583-.495.744-.842a3.14 3.14 0 000-2.526 2.029 2.029 0 00-.744-.842 2.06 2.06 0 00-1.122-.3H40.51v-1.859h4.398a4.42 4.42 0 012.195.53 3.691 3.691 0 011.471 1.5 5.053 5.053 0 010 4.49 3.668 3.668 0 01-1.47 1.49 4.434 4.434 0 01-2.196.526H40.51v-1.87z" fill="#9A1F1F"/></svg>