<svg width="30" height="20" fill="none" xmlns="http://www.w3.org/2000/svg"><path d="M2.34.571C.822.571-.333 2.062.085 3.53 1.176 7.35 2.79 11.093 5.2 14.035c2.41 2.942 5.668 5.075 9.835 5.498 1.387.141 2.583-.99 2.583-2.361v-2.738c0-.17.117-.292.25-.296l.057-.001c.479 0 1.462.6 2.326 1.531.863.932 1.627 2.086 1.995 2.725v.001a2.327 2.327 0 002.015 1.158h3.297c1.642.001 2.74-1.854 1.937-3.29-1.261-2.257-3.778-4.489-5.037-5.602 2.306-2.532 3.835-5.292 4.512-7.122.512-1.383-.542-2.939-2.03-2.939h-2.353c-1.022 0-1.976.498-2.366 1.296-1.832 3.754-3.464 5.132-4.614 6.125V2.927a2.339 2.339 0 00-2.32-2.32L11.163.6C9.85.6 9.037 2.22 9.824 3.27l.795 1.066.002.003c.136.18.208.396.208.618v.001l.016 4.247c-1.639-1.729-3.42-5.39-3.957-7.024v-.002A2.344 2.344 0 004.674.578h-.001L2.341.57h-.002zm0 2.03l2.33.007a.29.29 0 01.29.206c.667 2.029 2.42 5.895 4.643 8.06a1.963 1.963 0 002.081.41 1.945 1.945 0 001.192-1.77l-.017-4.557c0-.664-.217-1.309-.616-1.838l-.001-.003-.363-.485 3.402.006c.178 0 .295.116.295.29v5.145c0 1.647 2.074 2.593 3.322 1.516h.001c1.144-.987 3.167-2.75 5.144-6.802.046-.094.006-.157.543-.157h2.354c.137 0 .177.065.125.205-.575 1.554-2.044 4.266-4.222 6.612-.67.723-.643 1.918.116 2.59 1.189 1.052 3.785 3.466 4.763 5.215.09.16.022.271-.164.271H24.26a.289.289 0 01-.256-.141 17.965 17.965 0 00-2.265-3.092c-1.02-1.1-2.233-2.182-3.815-2.182l-.11.001h-.004c-1.259.036-2.222 1.104-2.222 2.326v2.738c0 .21-.162.361-.35.342-3.6-.366-6.316-2.135-8.47-4.765-2.153-2.63-3.691-6.13-4.73-9.777-.058-.203.067-.371.301-.371z" fill="#9A1F1F"/></svg>