<svg width="63" height="65" fill="none" xmlns="http://www.w3.org/2000/svg"><path fill-rule="evenodd" clip-rule="evenodd" d="M60.142 37.82h-.963v-8.68a4.043 4.043 0 00-1.725-3.35v-1.21c0-1.695-1.404-3.108-3.09-3.108h-.722l2.729-4.036a3.03 3.03 0 00-.763-4.158L36.992.523A3.156 3.156 0 0034.745.04a3.047 3.047 0 00-1.885 1.25L16.771 25.024h-4.454l1.084-10.979c0-.121.08-.242.2-.283a6.891 6.891 0 003.37-2.785c.08-.08.201-.12.321-.12l7.022.686c.481.04.922-.323 1.003-.808.04-.524-.321-.968-.843-1.009L17.453 9c-.803-.081-1.565.323-2.006 1.009-.602.928-1.485 1.655-2.488 2.018-.802.323-1.324 1.009-1.404 1.816l-1.083 11.18H9.308l1.685-17.355c.08-.646.642-1.09 1.244-1.05L26.44 8.031c.482.04.923-.323 1.003-.807.04-.525-.32-.97-.842-1.01L12.438 4.803a2.977 2.977 0 00-3.25 2.664L7.824 21.472H5.457c-1.686 0-3.09 1.413-3.09 3.108v.807C.963 26.033 0 27.487 0 29.141v31.363a4.053 4.053 0 004.052 4.076h51.035c2.247 0 4.092-1.816 4.092-4.076v-8.72h.963a2.061 2.061 0 002.046-2.058v-9.848c0-1.13-.922-2.059-2.046-2.059zm-5.777-14.491c.682 0 1.243.565 1.243 1.25v.485c-.16-.04-.32-.04-.521-.04h-3.852l1.164-1.695h1.966zm-19.98-20.99c.16-.242.4-.403.721-.484h.2c.242 0 .442.04.643.202l18.616 12.755c.522.363.642 1.05.281 1.574l-5.817 8.638h-1.405l2.849-4.238a2.099 2.099 0 00.12-2.26c-.562-.97-.762-2.1-.642-3.19a2.091 2.091 0 00-.922-2.058l-9.63-6.62c-.682-.484-1.564-.524-2.246-.12a5.407 5.407 0 01-3.17.605c-.802-.121-1.645.242-2.086.928L20.382 25.024h-1.405L34.385 2.34zm.4 15.621c-4.012 0-7.262 3.149-7.542 7.064h-4.614L33.42 9.08c.04-.08.16-.12.24-.12h.041a7.05 7.05 0 004.333-.808c.08-.04.2-.04.321.04l9.67 6.62c.08.04.12.161.12.283-.2 1.493.12 3.027.842 4.318.04.122.04.243-.04.364l-3.57 5.247h-3.09c-.28-3.915-3.53-7.064-7.503-7.064zm5.658 7.064H29.088c.24-2.906 2.688-5.207 5.697-5.207 2.97 0 5.417 2.3 5.658 5.207zm-36.23-.444c0-.686.561-1.251 1.244-1.251h2.166l-.16 1.695h-3.25v-.444zm-2.367 4.56c0-1.251 1.003-2.26 2.206-2.26h51.035a2.25 2.25 0 012.247 2.26v2.543H1.846V29.14zm55.488 31.363c0 1.21-1.003 2.22-2.247 2.22H4.052c-1.203 0-2.206-1.01-2.206-2.22V57.92H6.78a.893.893 0 00.882-.888c0-.524-.401-.928-.882-.928H1.846V33.5h55.488v4.32h-8.707c-2.728 0-5.095 1.614-6.219 3.955-.04.04-.04.04-.04.08-.12.283-.24.566-.36.889a6.906 6.906 0 00-.322 2.058c0 3.835 3.13 6.983 6.941 6.983h8.707v4.319H12.638a.91.91 0 00-.922.928c0 .485.4.888.922.888h44.696v2.584zm3.009-10.778c0 .121-.08.202-.2.202H48.626c-1.926 0-3.61-1.09-4.493-2.664 0-.08-.04-.161-.08-.242a1.495 1.495 0 01-.201-.444 5.345 5.345 0 01-.321-1.776c0-.605.12-1.21.32-1.776.04-.161.121-.283.201-.444.04-.08.08-.161.08-.242.883-1.574 2.568-2.664 4.494-2.664h11.515c.12 0 .2.08.2.202v9.848z" fill="#9A1F1F"/><path d="M43 45a6 6 0 016-6h12v12H49a6 6 0 01-6-6z" fill="#9A1F1F"/><circle cx="48" cy="45" r="3" fill="#fff"/></svg>